# 3ds Max Wavefront OBJ Exporter v0.97b - (c)2007 guruware
# File Created: 05.01.2020 20:12:24

#
# object St√_tze
#

v  5.2575 9.0630 -9.0077
v  -5.2575 9.0630 -9.0077
v  -5.2575 8.0115 -9.0077
v  5.2575 8.0115 -9.0077
v  5.2575 9.0630 -10.0592
v  5.2575 8.0115 -10.0592
v  -5.2575 9.0630 -10.0592
v  -5.2575 8.0115 -10.0592
# 8 vertices

vn 0.5774 0.5774 0.5774
vn -0.5774 0.5774 0.5774
vn -0.5774 -0.5774 0.5774
vn 0.5774 -0.5774 0.5774
vn 0.5774 0.5774 -0.5774
vn 0.5774 -0.5774 -0.5774
vn -0.5774 0.5774 -0.5774
vn -0.5774 -0.5774 -0.5774
# 8 vertex normals

vt 0.0000 0.0000 0.0000
# 1 texture coords

o St√_tze
g St√_tze
s 1
f 1/1/1 2/1/2 3/1/3 
f 3/1/3 4/1/4 1/1/1 
f 5/1/5 1/1/1 4/1/4 
f 4/1/4 6/1/6 5/1/5 
f 7/1/7 5/1/5 6/1/6 
f 6/1/6 8/1/8 7/1/7 
f 2/1/2 7/1/7 8/1/8 
f 8/1/8 3/1/3 2/1/2 
f 5/1/5 7/1/7 2/1/2 
f 2/1/2 1/1/1 5/1/5 
f 4/1/4 3/1/3 8/1/8 
f 8/1/8 6/1/6 4/1/4 
# 12 faces

#
# object St√_tze_1
#

v  5.2575 9.0630 9.8481
v  -5.2575 9.0630 9.8481
v  -5.2575 8.0115 9.8481
v  5.2575 8.0115 9.8481
v  5.2575 9.0630 8.7966
v  5.2575 8.0115 8.7966
v  -5.2575 9.0630 8.7966
v  -5.2575 8.0115 8.7966
# 8 vertices

vn 0.5774 0.5774 0.5774
vn -0.5774 0.5774 0.5774
vn -0.5774 -0.5774 0.5774
vn 0.5774 -0.5774 0.5774
vn 0.5774 0.5774 -0.5774
vn 0.5774 -0.5774 -0.5774
vn -0.5774 0.5774 -0.5774
vn -0.5774 -0.5774 -0.5774
# 8 vertex normals

vt 0.0000 0.0000 0.0000
# 1 texture coords

o St√_tze_1
g St√_tze_1
s 1
f 9/2/9 10/2/10 11/2/11 
f 11/2/11 12/2/12 9/2/9 
f 13/2/13 9/2/9 12/2/12 
f 12/2/12 14/2/14 13/2/13 
f 15/2/15 13/2/13 14/2/14 
f 14/2/14 16/2/16 15/2/15 
f 10/2/10 15/2/15 16/2/16 
f 16/2/16 11/2/11 10/2/10 
f 13/2/13 15/2/15 10/2/10 
f 10/2/10 9/2/9 13/2/13 
f 12/2/12 11/2/11 16/2/16 
f 16/2/16 14/2/14 12/2/12 
# 12 faces

#
# object St√_tze_2
#

v  0.5257 9.0630 9.3840
v  -0.5257 9.0630 9.3840
v  -0.5257 8.0115 9.3840
v  0.5257 8.0115 9.3840
v  0.5257 9.0630 -9.5430
v  0.5257 8.0115 -9.5430
v  -0.5257 9.0630 -9.5430
v  -0.5257 8.0115 -9.5430
# 8 vertices

vn 0.5774 0.5774 0.5774
vn -0.5774 0.5774 0.5774
vn -0.5774 -0.5774 0.5774
vn 0.5774 -0.5774 0.5774
vn 0.5774 0.5774 -0.5774
vn 0.5774 -0.5774 -0.5774
vn -0.5774 0.5774 -0.5774
vn -0.5774 -0.5774 -0.5774
# 8 vertex normals

vt 0.0000 0.0000 0.0000
# 1 texture coords

o St√_tze_2
g St√_tze_2
s 1
f 17/3/17 18/3/18 19/3/19 
f 19/3/19 20/3/20 17/3/17 
f 21/3/21 17/3/17 20/3/20 
f 20/3/20 22/3/22 21/3/21 
f 23/3/23 21/3/21 22/3/22 
f 22/3/22 24/3/24 23/3/23 
f 18/3/18 23/3/23 24/3/24 
f 24/3/24 19/3/19 18/3/18 
f 21/3/21 23/3/23 18/3/18 
f 18/3/18 17/3/17 21/3/21 
f 20/3/20 19/3/19 24/3/24 
f 24/3/24 22/3/22 20/3/20 
# 12 faces

#
# object Platte
#

v  7.3605 10.9049 11.4870
v  -7.3605 10.9049 11.4870
v  -7.3605 10.3792 11.4870
v  7.3605 10.3792 11.4870
v  -7.3605 10.9049 -11.6460
v  7.3605 10.9049 -11.6460
v  7.3605 10.3792 -11.6460
v  -7.3605 10.3792 -11.6460
# 8 vertices

vn 0.5774 0.5774 0.5774
vn -0.5774 0.5774 0.5774
vn -0.5774 -0.5774 0.5774
vn 0.5774 -0.5774 0.5774
vn -0.5774 0.5774 -0.5774
vn 0.5774 0.5774 -0.5774
vn 0.5774 -0.5774 -0.5774
vn -0.5774 -0.5774 -0.5774
# 8 vertex normals

vt 0.0000 0.0000 0.0000
# 1 texture coords

o Platte
g Platte
s 1
f 25/4/25 26/4/26 27/4/27 
f 27/4/27 28/4/28 25/4/25 
f 29/4/29 30/4/30 31/4/31 
f 31/4/31 32/4/32 29/4/29 
f 30/4/30 29/4/29 26/4/26 
f 26/4/26 25/4/25 30/4/30 
f 28/4/28 27/4/27 32/4/32 
f 32/4/32 31/4/31 28/4/28 
f 30/4/30 25/4/25 28/4/28 
f 28/4/28 31/4/31 30/4/30 
f 26/4/26 29/4/29 32/4/32 
f 32/4/32 27/4/27 26/4/26 
# 12 faces

#
# object Bein
#

v  -5.2575 10.6402 9.9097
v  -6.3090 10.6402 9.9097
v  -6.3090 0.1252 9.9097
v  -5.2575 0.1252 9.9097
v  -5.2575 10.6402 8.8582
v  -5.2575 0.1252 8.8582
v  -6.3090 10.6402 8.8582
v  -6.3090 0.1252 8.8582
# 8 vertices

vn 0.5774 0.5774 0.5774
vn -0.5774 0.5774 0.5774
vn -0.5774 -0.5774 0.5774
vn 0.5774 -0.5774 0.5774
vn 0.5774 0.5774 -0.5774
vn 0.5774 -0.5774 -0.5774
vn -0.5774 0.5774 -0.5774
vn -0.5774 -0.5774 -0.5774
# 8 vertex normals

vt 0.0000 0.0000 0.0000
# 1 texture coords

o Bein
g Bein
s 1
f 33/5/33 34/5/34 35/5/35 
f 35/5/35 36/5/36 33/5/33 
f 37/5/37 33/5/33 36/5/36 
f 36/5/36 38/5/38 37/5/37 
f 39/5/39 37/5/37 38/5/38 
f 38/5/38 40/5/40 39/5/39 
f 34/5/34 39/5/39 40/5/40 
f 40/5/40 35/5/35 34/5/34 
f 37/5/37 39/5/39 34/5/34 
f 34/5/34 33/5/33 37/5/37 
f 36/5/36 35/5/35 40/5/40 
f 40/5/40 38/5/38 36/5/36 
# 12 faces

#
# object Bein_1
#

v  6.3090 10.6402 9.9097
v  5.2575 10.6402 9.9097
v  5.2575 0.1252 9.9097
v  6.3090 0.1252 9.9097
v  6.3090 10.6402 8.8582
v  6.3090 0.1252 8.8582
v  5.2575 10.6402 8.8582
v  5.2575 0.1252 8.8582
# 8 vertices

vn 0.5774 0.5774 0.5774
vn -0.5774 0.5774 0.5774
vn -0.5774 -0.5774 0.5774
vn 0.5774 -0.5774 0.5774
vn 0.5774 0.5774 -0.5774
vn 0.5774 -0.5774 -0.5774
vn -0.5774 0.5774 -0.5774
vn -0.5774 -0.5774 -0.5774
# 8 vertex normals

vt 0.0000 0.0000 0.0000
# 1 texture coords

o Bein_1
g Bein_1
s 1
f 41/6/41 42/6/42 43/6/43 
f 43/6/43 44/6/44 41/6/41 
f 45/6/45 41/6/41 44/6/44 
f 44/6/44 46/6/46 45/6/45 
f 47/6/47 45/6/45 46/6/46 
f 46/6/46 48/6/48 47/6/47 
f 42/6/42 47/6/47 48/6/48 
f 48/6/48 43/6/43 42/6/42 
f 45/6/45 47/6/47 42/6/42 
f 42/6/42 41/6/41 45/6/45 
f 44/6/44 43/6/43 48/6/48 
f 48/6/48 46/6/46 44/6/44 
# 12 faces

#
# object Bein_2
#

v  -5.2575 10.6402 -9.0173
v  -6.3090 10.6402 -9.0173
v  -6.3090 0.1252 -9.0173
v  -5.2575 0.1252 -9.0173
v  -5.2575 10.6402 -10.0688
v  -5.2575 0.1252 -10.0688
v  -6.3090 10.6402 -10.0688
v  -6.3090 0.1252 -10.0688
# 8 vertices

vn 0.5774 0.5774 0.5774
vn -0.5774 0.5774 0.5774
vn -0.5774 -0.5774 0.5774
vn 0.5774 -0.5774 0.5774
vn 0.5774 0.5774 -0.5774
vn 0.5774 -0.5774 -0.5774
vn -0.5774 0.5774 -0.5774
vn -0.5774 -0.5774 -0.5774
# 8 vertex normals

vt 0.0000 0.0000 0.0000
# 1 texture coords

o Bein_2
g Bein_2
s 1
f 49/7/49 50/7/50 51/7/51 
f 51/7/51 52/7/52 49/7/49 
f 53/7/53 49/7/49 52/7/52 
f 52/7/52 54/7/54 53/7/53 
f 55/7/55 53/7/53 54/7/54 
f 54/7/54 56/7/56 55/7/55 
f 50/7/50 55/7/55 56/7/56 
f 56/7/56 51/7/51 50/7/50 
f 53/7/53 55/7/55 50/7/50 
f 50/7/50 49/7/49 53/7/53 
f 52/7/52 51/7/51 56/7/56 
f 56/7/56 54/7/54 52/7/52 
# 12 faces

#
# object Bein_3
#

v  6.3090 10.6402 -9.0173
v  5.2575 10.6402 -9.0173
v  5.2575 0.1252 -9.0173
v  6.3090 0.1252 -9.0173
v  6.3090 10.6402 -10.0688
v  6.3090 0.1252 -10.0688
v  5.2575 10.6402 -10.0688
v  5.2575 0.1252 -10.0688
# 8 vertices

vn 0.5774 0.5774 0.5774
vn -0.5774 0.5774 0.5774
vn -0.5774 -0.5774 0.5774
vn 0.5774 -0.5774 0.5774
vn 0.5774 0.5774 -0.5774
vn 0.5774 -0.5774 -0.5774
vn -0.5774 0.5774 -0.5774
vn -0.5774 -0.5774 -0.5774
# 8 vertex normals

vt 0.0000 0.0000 0.0000
# 1 texture coords

o Bein_3
g Bein_3
s 1
f 57/8/57 58/8/58 59/8/59 
f 59/8/59 60/8/60 57/8/57 
f 61/8/61 57/8/57 60/8/60 
f 60/8/60 62/8/62 61/8/61 
f 63/8/63 61/8/61 62/8/62 
f 62/8/62 64/8/64 63/8/63 
f 58/8/58 63/8/63 64/8/64 
f 64/8/64 59/8/59 58/8/58 
f 61/8/61 63/8/63 58/8/58 
f 58/8/58 57/8/57 61/8/61 
f 60/8/60 59/8/59 64/8/64 
f 64/8/64 62/8/62 60/8/60 
# 12 faces

